<svg width="567" height="585" viewBox="0 0 567 585" fill="none" xmlns="http://www.w3.org/2000/svg">
<path d="M93.0716 184.451H53.5109V518.268H93.0716V537.483H30.9048V165.236H93.0716V184.451ZM468.145 165.236H530.5V537.483H468.145V518.268H507.894V184.451H468.145V165.236Z" fill="white"/>
<path d="M88.0425 50.8652L63.5073 99.1399C62.6232 100.82 61.7833 101.66 60.9875 101.66C60.1034 101.66 59.2634 100.82 58.4677 99.1399L34.0651 50.8652V133.754C34.0651 135.346 33.2694 136.142 31.6779 136.142C30.0864 136.142 29.2907 135.346 29.2907 133.754V41.449C29.2907 39.946 30.0864 39.1944 31.6779 39.1944C32.6505 39.1944 34.0209 40.7859 35.7892 43.9689L60.9875 94.6307L86.3184 43.9689C88.0867 40.7859 89.4572 39.1944 90.4297 39.1944C92.0212 39.1944 92.817 39.946 92.817 41.449V133.754C92.817 135.346 92.0212 136.142 90.4297 136.142C88.8383 136.142 88.0425 135.346 88.0425 133.754V50.8652ZM114.783 73.5437H127.116C135.251 73.5437 141.219 75.7099 145.021 80.0422C148.822 84.2861 150.723 89.9447 150.723 97.0179V133.754C150.723 135.346 149.972 136.142 148.469 136.142C147.85 136.142 147.275 135.921 146.745 135.478C146.303 135.036 146.082 134.462 146.082 133.754V126.858C140.246 133.578 133.615 136.937 126.188 136.937C120.706 136.937 116.241 135.478 112.793 132.561C109.433 129.555 107.754 125.178 107.754 119.431C107.754 112.8 110.362 108.247 115.578 105.771C120.883 103.207 128.575 101.925 138.655 101.925H146.082V97.0179C146.082 91.6246 144.446 87.1596 141.174 83.623C137.992 79.998 133.306 78.1855 127.116 78.1855H114.783C114.164 78.1855 113.589 77.9645 113.058 77.5224C112.616 76.9919 112.395 76.4172 112.395 75.7983C112.395 74.2952 113.191 73.5437 114.783 73.5437ZM146.082 117.707V106.567H138.787C134.809 106.567 131.449 106.699 128.708 106.965C126.056 107.23 123.359 107.805 120.618 108.689C117.877 109.484 115.799 110.811 114.385 112.667C113.058 114.436 112.395 116.69 112.395 119.431C112.395 123.675 113.633 126.902 116.109 129.113C118.673 131.235 121.988 132.296 126.056 132.296C130.83 132.296 135.339 130.616 139.583 127.256C143.915 123.896 146.082 120.713 146.082 117.707ZM167.948 117.707V45.1625C167.948 44.5436 168.169 44.0131 168.611 43.571C169.141 43.1289 169.672 42.9079 170.202 42.9079C170.821 42.9079 171.352 43.1289 171.794 43.571C172.324 44.0131 172.589 44.5436 172.589 45.1625V73.5437H190.494C191.112 73.5437 191.643 73.809 192.085 74.3394C192.527 74.7815 192.748 75.312 192.748 75.9309C192.748 76.5498 192.527 77.0803 192.085 77.5224C191.643 77.9645 191.112 78.1855 190.494 78.1855H172.589V117.707C172.589 122.747 173.695 126.328 175.905 128.449C178.115 130.483 181.917 131.5 187.311 131.5H190.361C190.98 131.5 191.51 131.721 191.952 132.163C192.394 132.605 192.615 133.135 192.615 133.754C192.615 134.373 192.394 134.948 191.952 135.478C191.51 135.921 190.98 136.142 190.361 136.142H187.311C174.402 136.142 167.948 129.997 167.948 117.707ZM224.904 72.748H228.219C229.634 72.748 230.341 73.4995 230.341 75.0026C230.341 76.594 229.634 77.3898 228.219 77.3898H224.904C219.953 77.3898 215.886 79.6886 212.703 84.2861C209.608 88.8837 208.061 94.1444 208.061 100.068V133.887C208.061 134.506 207.796 135.036 207.265 135.478C206.823 135.921 206.293 136.142 205.674 136.142C205.055 136.142 204.524 135.921 204.082 135.478C203.64 135.036 203.419 134.506 203.419 133.887V100.068C203.419 92.8182 205.453 86.4523 209.52 80.9706C213.675 75.4888 218.803 72.748 224.904 72.748ZM243.646 73.5437C245.238 73.5437 246.033 74.2952 246.033 75.7983V133.754C246.033 134.373 245.768 134.948 245.238 135.478C244.796 135.921 244.265 136.142 243.646 136.142C243.027 136.142 242.497 135.921 242.055 135.478C241.613 134.948 241.392 134.373 241.392 133.754V75.7983C241.392 75.1794 241.613 74.6489 242.055 74.2068C242.497 73.7647 243.027 73.5437 243.646 73.5437ZM243.646 42.9079C245.149 42.9079 246.475 43.4826 247.625 44.632C248.774 45.7814 249.349 47.1076 249.349 48.6106C249.349 50.1137 248.774 51.4399 247.625 52.5893C246.475 53.7387 245.149 54.3134 243.646 54.3134C242.055 54.3134 240.684 53.7387 239.535 52.5893C238.386 51.4399 237.811 50.1137 237.811 48.6106C237.811 47.1076 238.386 45.7814 239.535 44.632C240.684 43.4826 242.055 42.9079 243.646 42.9079ZM299.726 72.748C300.345 72.748 300.875 72.969 301.317 73.4111C301.848 73.8532 302.113 74.4279 302.113 75.1352C302.113 75.4888 301.98 75.8867 301.715 76.3288L283.281 104.843L301.715 133.357C301.98 133.799 302.113 134.241 302.113 134.683C302.113 135.302 301.848 135.832 301.317 136.274C300.875 136.716 300.345 136.937 299.726 136.937C298.93 136.937 298.311 136.584 297.869 135.876L280.496 109.219L262.989 135.876C262.459 136.584 261.796 136.937 261 136.937C260.381 136.937 259.806 136.716 259.276 136.274C258.834 135.832 258.613 135.302 258.613 134.683C258.613 134.241 258.745 133.799 259.011 133.357L277.578 104.843L259.011 76.3288C258.745 75.8867 258.613 75.4888 258.613 75.1352C258.613 74.4279 258.834 73.8532 259.276 73.4111C259.718 72.969 260.293 72.748 261 72.748C261.884 72.748 262.547 73.1016 262.989 73.809L280.496 100.599L297.869 73.809C298.311 73.1016 298.93 72.748 299.726 72.748ZM386.721 130.439C382.035 134.771 375.758 136.937 367.889 136.937C360.02 136.937 353.742 134.771 349.056 130.439C344.37 126.018 342.027 119.077 342.027 109.617V66.5147C342.027 57.0543 344.37 50.1579 349.056 45.8256C353.742 41.4048 360.02 39.1944 367.889 39.1944C375.758 39.1944 382.035 41.4048 386.721 45.8256C391.496 50.1579 393.883 57.0543 393.883 66.5147V109.617C393.883 119.077 391.496 126.018 386.721 130.439ZM389.108 109.617V66.5147C389.108 58.9994 387.252 53.3851 383.538 49.6716C379.913 45.8698 374.697 43.9689 367.889 43.9689C361.081 43.9689 355.864 45.8698 352.239 49.6716C348.614 53.3851 346.802 58.9994 346.802 66.5147V109.617C346.802 117.132 348.614 122.791 352.239 126.593C355.864 130.306 361.081 132.163 367.889 132.163C374.697 132.163 379.913 130.306 383.538 126.593C387.252 122.791 389.108 117.132 389.108 109.617ZM417.258 66.5147V109.617C417.258 117.132 419.07 122.791 422.695 126.593C426.32 130.306 431.537 132.163 438.345 132.163C444.357 132.163 449.175 130.748 452.8 127.919C456.514 125.001 458.768 120.625 459.564 114.789C459.653 113.198 460.448 112.402 461.951 112.402C463.543 112.402 464.339 113.286 464.339 115.055C463.808 121.509 461.288 126.77 456.779 130.837C452.358 134.904 446.213 136.937 438.345 136.937C430.476 136.937 424.198 134.771 419.512 130.439C414.826 126.018 412.483 119.077 412.483 109.617V66.5147C412.483 57.0543 414.826 50.1579 419.512 45.8256C424.198 41.4048 430.476 39.1944 438.345 39.1944C446.213 39.1944 452.358 41.228 456.779 45.2951C461.288 49.3622 463.808 54.6229 464.339 61.0772C464.339 62.8455 463.543 63.7296 461.951 63.7296C460.448 63.7296 459.653 62.9339 459.564 61.3424C458.768 55.507 456.514 51.1747 452.8 48.3454C449.175 45.4277 444.357 43.9689 438.345 43.9689C431.537 43.9689 426.32 45.8698 422.695 49.6716C419.07 53.3851 417.258 58.9994 417.258 66.5147ZM480.389 133.754V41.449C480.389 40.1228 481.185 39.3713 482.776 39.1944H504.924C513.058 39.1944 519.645 41.1838 524.685 45.1625C529.725 49.1411 532.244 55.5954 532.244 64.5254C532.244 79.5559 524.818 87.9554 509.964 89.7237L531.847 132.296C532.112 132.826 532.244 133.312 532.244 133.754C532.244 134.462 532.023 135.036 531.581 135.478C531.139 135.921 530.565 136.142 529.857 136.142C529.504 136.142 529.15 136.053 528.796 135.876C528.531 135.7 528.222 135.39 527.868 134.948C527.603 134.506 527.382 134.152 527.205 133.887L526.674 132.428C526.321 131.809 526.1 131.456 526.011 131.367L504.792 89.9889H485.163V133.754C485.163 135.346 484.368 136.142 482.776 136.142C481.185 136.142 480.389 135.346 480.389 133.754ZM504.924 43.9689H485.163V85.2145H504.924C511.909 85.2145 517.391 83.5346 521.369 80.1748C525.437 76.8151 527.47 71.5986 527.47 64.5254C527.47 57.4522 525.437 52.2799 521.369 49.0085C517.391 45.6487 511.909 43.9689 504.924 43.9689Z" fill="white"/>
<path d="M122.549 389.888L132.097 371.369C132.965 369.729 134.075 368.909 135.425 368.909C136.968 368.909 137.74 369.729 137.74 371.369V472.066C137.74 473.802 136.872 474.67 135.136 474.67C133.399 474.67 132.531 473.802 132.531 472.066V382.22L126.31 393.794C125.731 395.048 124.863 395.675 123.706 395.675C123.031 395.675 122.404 395.434 121.825 394.952C121.343 394.469 121.102 393.891 121.102 393.215C121.102 392.926 121.584 391.817 122.549 389.888Z" fill="white"/>
<path d="M315.454 245.209L325.003 226.69C325.871 225.05 326.98 224.23 328.331 224.23C329.874 224.23 330.646 225.05 330.646 226.69V327.386C330.646 329.123 329.777 329.991 328.041 329.991C326.305 329.991 325.437 329.123 325.437 327.386V237.541L319.216 249.115C318.637 250.369 317.769 250.996 316.612 250.996C315.936 250.996 315.31 250.755 314.731 250.272C314.249 249.79 314.007 249.211 314.007 248.536C314.007 248.247 314.49 247.138 315.454 245.209Z" fill="white"/>
<path d="M219.001 245.209L228.55 226.69C229.418 225.05 230.527 224.23 231.878 224.23C233.421 224.23 234.193 225.05 234.193 226.69V327.386C234.193 329.123 233.325 329.991 231.588 329.991C229.852 329.991 228.984 329.123 228.984 327.386V237.541L222.763 249.115C222.184 250.369 221.316 250.996 220.159 250.996C219.484 250.996 218.857 250.755 218.278 250.272C217.796 249.79 217.555 249.211 217.555 248.536C217.555 248.247 218.037 247.138 219.001 245.209Z" fill="white"/>
<path d="M315.454 389.888L325.003 371.369C325.871 369.729 326.98 368.909 328.331 368.909C329.874 368.909 330.646 369.729 330.646 371.369V472.066C330.646 473.802 329.777 474.67 328.041 474.67C326.305 474.67 325.437 473.802 325.437 472.066V382.22L319.216 393.794C318.637 395.048 317.769 395.675 316.612 395.675C315.936 395.675 315.31 395.434 314.731 394.952C314.249 394.469 314.007 393.891 314.007 393.215C314.007 392.926 314.49 391.817 315.454 389.888Z" fill="white"/>
<path d="M149.507 323.769C144.395 328.496 137.547 330.859 128.963 330.859C120.378 330.859 113.53 328.496 108.418 323.769C103.306 318.947 100.75 311.375 100.75 301.055V254.034C100.75 243.714 103.306 236.19 108.418 231.464C113.53 226.641 120.378 224.23 128.963 224.23C137.547 224.23 144.395 226.641 149.507 231.464C154.716 236.19 157.32 243.714 157.32 254.034V301.055C157.32 311.375 154.716 318.947 149.507 323.769ZM105.959 254.034V301.055C105.959 305.684 106.634 309.736 107.984 313.208L147.337 237.107C143.479 231.995 137.354 229.439 128.963 229.439C121.536 229.439 115.845 231.512 111.89 235.66C107.936 239.711 105.959 245.835 105.959 254.034ZM152.111 301.055V254.034C152.111 249.887 151.484 246.028 150.231 242.46L110.733 318.272C114.495 323.191 120.571 325.65 128.963 325.65C136.39 325.65 142.08 323.625 146.035 319.574C150.086 315.426 152.111 309.253 152.111 301.055Z" fill="white"/>
<path d="M438.866 323.769C433.754 328.496 426.905 330.859 418.321 330.859C409.737 330.859 402.889 328.496 397.777 323.769C392.665 318.947 390.109 311.375 390.109 301.055V254.034C390.109 243.714 392.665 236.19 397.777 231.464C402.889 226.641 409.737 224.23 418.321 224.23C426.905 224.23 433.754 226.641 438.866 231.464C444.074 236.19 446.678 243.714 446.678 254.034V301.055C446.678 311.375 444.074 318.947 438.866 323.769ZM395.317 254.034V301.055C395.317 305.684 395.992 309.736 397.343 313.208L436.695 237.107C432.837 231.995 426.713 229.439 418.321 229.439C410.894 229.439 405.204 231.512 401.249 235.66C397.294 239.711 395.317 245.835 395.317 254.034ZM441.47 301.055V254.034C441.47 249.887 440.843 246.028 439.589 242.46L400.092 318.272C403.853 323.191 409.93 325.65 418.321 325.65C425.748 325.65 431.439 323.625 435.393 319.574C439.444 315.426 441.47 309.253 441.47 301.055Z" fill="white"/>
<path d="M438.866 468.449C433.754 473.175 426.905 475.538 418.321 475.538C409.737 475.538 402.889 473.175 397.777 468.449C392.665 463.626 390.109 456.054 390.109 445.734V398.713C390.109 388.393 392.665 380.869 397.777 376.143C402.889 371.321 409.737 368.909 418.321 368.909C426.905 368.909 433.754 371.321 438.866 376.143C444.074 380.869 446.678 388.393 446.678 398.713V445.734C446.678 456.054 444.074 463.626 438.866 468.449ZM395.317 398.713V445.734C395.317 450.364 395.992 454.415 397.343 457.887L436.695 381.786C432.837 376.674 426.713 374.118 418.321 374.118C410.894 374.118 405.204 376.191 401.249 380.339C397.294 384.39 395.317 390.515 395.317 398.713ZM441.47 445.734V398.713C441.47 394.566 440.843 390.708 439.589 387.139L400.092 462.951C403.853 467.87 409.93 470.329 418.321 470.329C425.748 470.329 431.439 468.304 435.393 464.253C439.444 460.105 441.47 453.932 441.47 445.734Z" fill="white"/>
<path d="M245.96 474.477C240.848 479.203 234 481.566 225.415 481.566C216.831 481.566 209.983 479.203 204.871 474.477C199.759 469.654 197.203 462.083 197.203 451.762V404.742C197.203 394.421 199.759 386.898 204.871 382.172C209.983 377.349 216.831 374.938 225.415 374.938C234 374.938 240.848 377.349 245.96 382.172C251.168 386.898 253.773 394.421 253.773 404.742V451.762C253.773 462.083 251.168 469.654 245.96 474.477ZM202.411 404.742V451.762C202.411 456.392 203.087 460.443 204.437 463.915L243.79 387.814C239.932 382.702 233.807 380.146 225.415 380.146C217.989 380.146 212.298 382.22 208.343 386.367C204.389 390.418 202.411 396.543 202.411 404.742ZM248.564 451.762V404.742C248.564 400.594 247.937 396.736 246.683 393.167L207.186 468.979C210.948 473.898 217.024 476.358 225.415 476.358C232.842 476.358 238.533 474.332 242.488 470.281C246.539 466.134 248.564 459.961 248.564 451.762Z" fill="white"/>
</svg>
